<svg id="svg" version="1.1" xmlns="http://www.w3.org/2000/svg" xmlns:xlink="http://www.w3.org/1999/xlink" width="400" height="400" viewBox="0, 0, 400,400"><g id="svgg"><path id="path0" d="M189.063 40.106 C 128.436 43.432,75.514 83.149,54.555 141.053 C 48.296 158.344,44.531 177.939,44.531 193.227 L 44.531 197.656 53.651 197.656 L 62.770 197.656 63.123 192.871 L 63.477 188.086 80.664 173.298 C 99.859 156.782,128.510 132.553,156.055 109.543 C 166.741 100.616,188.264 82.761,190.137 81.270 L 191.797 79.947 191.797 59.896 C 191.797 48.867,191.665 39.876,191.504 39.916 C 191.343 39.956,190.244 40.041,189.063 40.106 M209.375 62.232 L 209.375 72.121 214.746 72.806 C 245.579 76.739,274.828 93.250,294.409 117.773 L 297.216 121.289 279.663 121.391 C 270.008 121.447,262.109 121.578,262.109 121.683 C 262.109 121.787,262.903 122.951,263.872 124.268 C 289.798 159.485,293.651 214.220,273.093 255.247 L 270.861 259.701 272.596 258.464 C 275.326 256.517,286.022 247.869,293.839 241.288 C 310.886 226.936,323.599 216.438,323.750 216.588 C 324.498 217.337,320.453 235.564,317.765 243.555 C 303.590 285.686,268.524 319.140,227.259 329.901 C 226.030 330.222,224.756 330.587,224.427 330.713 C 223.904 330.914,223.830 330.156,223.845 324.749 L 223.861 318.555 225.310 316.940 C 230.108 311.589,243.499 297.022,250.256 289.801 C 256.022 283.639,258.039 281.242,257.724 280.927 C 257.409 280.612,256.597 281.152,254.718 282.924 C 253.301 284.259,248.892 288.065,244.919 291.382 C 240.946 294.699,231.323 302.846,223.535 309.486 L 209.375 321.559 209.375 337.538 C 209.375 346.325,209.499 353.516,209.650 353.516 C 210.843 353.516,224.494 350.451,229.620 349.031 C 307.344 327.516,355.008 250.950,340.393 171.094 C 329.934 113.949,283.376 66.414,226.563 54.875 C 222.864 54.123,210.905 52.344,209.555 52.344 C 209.456 52.344,209.375 56.794,209.375 62.232 M176.172 70.505 L 176.172 80.462 171.387 84.514 C 166.019 89.059,160.169 93.955,129.883 119.248 C 107.903 137.605,80.821 160.469,71.099 168.878 C 67.986 171.570,65.408 173.741,65.369 173.703 C 65.234 173.568,67.134 164.611,68.160 160.546 C 79.003 117.576,110.451 82.452,152.046 66.856 C 158.745 64.344,172.358 60.724,175.684 60.570 C 176.062 60.552,176.172 62.787,176.172 70.505 M196.174 92.955 C 185.090 98.241,172.062 108.863,162.143 120.701 C 128.874 160.408,123.712 213.830,149.039 256.327 C 160.597 275.719,180.891 295.753,197.086 303.757 L 200.026 305.210 203.235 303.545 C 224.596 292.465,246.182 268.930,257.022 244.903 C 271.699 212.370,270.227 174.424,253.055 142.656 C 241.671 121.597,222.470 101.884,205.458 93.792 C 199.871 91.135,199.971 91.144,196.174 92.955 M203.816 105.805 C 212.144 110.810,222.807 120.094,228.451 127.254 L 229.753 128.906 200.202 128.906 L 170.650 128.906 171.508 127.702 C 175.895 121.540,190.861 108.665,198.047 104.871 C 200.359 103.650,200.182 103.621,203.816 105.805 M311.748 140.918 C 319.584 157.319,325.117 180.059,324.971 195.257 L 324.943 198.242 311.202 209.623 C 303.644 215.883,297.421 220.970,297.372 220.928 C 297.324 220.886,297.531 218.841,297.833 216.383 C 301.257 188.495,297.698 162.163,287.371 138.965 L 286.371 136.719 298.057 136.719 L 309.742 136.719 311.748 140.918 M194.922 148.633 L 194.922 156.641 190.410 156.641 C 184.126 156.641,182.422 157.648,182.422 161.362 C 182.422 165.118,184.512 166.406,190.606 166.406 L 194.922 166.406 194.922 172.235 L 194.922 178.063 189.811 178.192 L 184.700 178.320 183.561 179.596 C 182.090 181.243,181.956 184.068,183.269 185.737 C 184.598 187.427,186.222 187.891,190.808 187.891 L 194.922 187.891 194.922 193.750 L 194.922 199.609 190.292 199.609 C 183.369 199.609,180.785 201.952,182.767 206.434 C 183.860 208.905,185.113 209.375,190.612 209.375 L 194.922 209.375 194.922 215.234 L 194.922 221.094 190.332 221.100 C 184.200 221.107,182.315 222.197,182.315 225.738 C 182.315 229.385,184.188 230.573,190.285 230.790 L 194.922 230.956 194.922 239.697 L 194.922 248.438 176.557 248.438 L 158.192 248.438 157.392 247.168 C 139.117 218.143,140.912 171.043,161.412 141.699 L 162.163 140.625 178.542 140.625 L 194.922 140.625 194.922 148.633 M240.163 143.676 C 258.874 172.844,260.525 213.988,244.219 244.727 L 242.354 248.242 223.709 248.344 L 205.063 248.445 205.168 239.641 L 205.273 230.837 209.766 230.746 C 214.922 230.642,216.310 230.136,217.330 227.986 C 219.433 223.554,216.711 221.108,209.668 221.100 L 205.078 221.094 205.078 215.234 L 205.078 209.375 209.590 209.375 C 215.622 209.375,217.966 208.009,217.966 204.492 C 217.966 200.976,215.622 199.609,209.590 199.609 L 205.078 199.609 205.078 193.790 L 205.078 187.971 209.933 187.833 C 217.484 187.619,220.352 183.979,216.431 179.587 L 215.300 178.320 210.189 178.192 L 205.078 178.063 205.078 172.235 L 205.078 166.406 209.388 166.406 C 215.461 166.406,217.963 165.006,217.967 161.602 C 217.972 157.997,215.708 156.644,209.668 156.642 L 205.078 156.641 205.078 148.633 L 205.078 140.625 221.642 140.625 L 238.206 140.625 240.163 143.676 M115.820 165.121 C 111.403 168.808,109.034 170.924,93.385 185.156 C 86.416 191.494,75.781 201.148,69.752 206.609 L 58.789 216.538 58.889 218.523 C 60.841 257.211,89.598 303.046,126.175 325.769 C 144.940 337.426,175.008 347.621,190.723 347.655 C 191.356 347.656,191.406 346.913,191.406 337.500 L 191.406 327.344 190.137 327.342 C 187.461 327.337,178.013 325.720,172.048 324.244 C 146.702 317.976,123.462 303.908,108.122 285.547 L 105.022 281.836 125.069 281.625 C 136.096 281.509,145.160 281.377,145.212 281.332 C 145.265 281.287,143.941 279.624,142.272 277.637 C 117.139 247.724,108.797 209.228,118.389 167.422 C 119.025 164.651,119.498 162.339,119.441 162.285 C 119.383 162.231,117.754 163.507,115.820 165.121 M102.326 217.578 C 104.809 234.237,109.764 250.049,117.045 264.551 L 118.369 267.188 106.069 267.188 L 93.769 267.188 91.974 264.160 C 84.557 251.651,78.571 234.179,76.649 219.434 L 76.305 216.797 83.758 210.025 C 87.857 206.301,93.408 201.275,96.094 198.857 L 100.977 194.460 101.229 203.187 C 101.394 208.899,101.773 213.871,102.326 217.578 M234.915 259.863 C 232.751 263.542,224.312 273.148,218.555 278.485 C 213.028 283.609,201.513 292.188,200.163 292.188 C 198.644 292.188,186.369 283.021,180.501 277.505 C 175.383 272.695,165.234 260.796,165.234 259.607 C 165.234 259.479,180.977 259.375,200.218 259.375 C 228.098 259.375,235.144 259.474,234.915 259.863 " stroke="none" fill="#000000" fill-rule="evenodd"></path></g></svg>